HIERARCHY
ROOT root
{
	OFFSET	0	13.1	24.9
	CHANNELS 6  Xposition Yposition Zposition Xrotation Yrotation Zrotation
	JOINT spine_1
	{
		OFFSET	0	9.99999	0
		CHANNELS 3  Xrotation Yrotation Zrotation
		JOINT spine_2
		{
			OFFSET	0	112	-10
			CHANNELS 3  Xrotation Yrotation Zrotation
			JOINT spine_3
			{
				OFFSET	0	206.5	19.3
				CHANNELS 3  Xrotation Yrotation Zrotation
				JOINT spine_4
				{
					OFFSET	0	110.4	14.6
					CHANNELS 3  Xrotation Yrotation Zrotation
					JOINT neck_1
					{
						OFFSET	0	71.8	-50.3
						CHANNELS 3  Xrotation Yrotation Zrotation
						JOINT neck_2
						{
							OFFSET	0	86.2	-25.8
							CHANNELS 3  Xrotation Yrotation Zrotation
							JOINT head_ee
							{
								OFFSET	0	179.8	-8.7
								CHANNELS 3  Xrotation Yrotation Zrotation
								End Site
								{
									OFFSET	1	0	0
								}
							}
						}
					}
					JOINT left_clavicle
					{
						OFFSET	-43.2	22.4	-70.8
						CHANNELS 3  Xrotation Yrotation Zrotation
						JOINT left_shoulder
						{
							OFFSET	-93.9	-5.79999	48.7
							CHANNELS 3  Xrotation Yrotation Zrotation
							JOINT left_elbow
							{
								OFFSET	-291.4	-30.8	15.2
								CHANNELS 3  Xrotation Yrotation Zrotation
								JOINT left_lowarm_twist
								{
									OFFSET	-110.7	-3.89999	13.6
									CHANNELS 3  Xrotation Yrotation Zrotation
									JOINT left_hand
									{
										OFFSET	-110.7	-3.89999	13.6
										CHANNELS 3  Xrotation Yrotation Zrotation
										JOINT left_ee
										{
											OFFSET	-80.8	-5.10001	12.1
											CHANNELS 3  Xrotation Yrotation Zrotation
											End Site
											{
												OFFSET	1	0	0
											}
										}
									}
								}
							}
						}
					}
					JOINT right_clavicle
					{
						OFFSET	43.2	22.4	-70.8
						CHANNELS 3  Xrotation Yrotation Zrotation
						JOINT right_shoulder
						{
							OFFSET	93.9	-5.79999	48.7
							CHANNELS 3  Xrotation Yrotation Zrotation
							JOINT right_elbow
							{
								OFFSET	291.4	-30.8	15.2
								CHANNELS 3  Xrotation Yrotation Zrotation
								JOINT right_lowarm_twist
								{
									OFFSET	110.7	-3.89999	13.6
									CHANNELS 3  Xrotation Yrotation Zrotation
									JOINT right_hand
									{
										OFFSET	110.7	-3.89999	13.6
										CHANNELS 3  Xrotation Yrotation Zrotation
										JOINT right_ee
										{
											OFFSET	80.8	-5.10001	12.1
											CHANNELS 3  Xrotation Yrotation Zrotation
											End Site
											{
												OFFSET	1	0	0
											}
										}
									}
								}
							}
						}
					}
				}
			}
		}
	}
	JOINT left_hip
	{
		OFFSET	-82.8	-127.5	0.300001
		CHANNELS 3  Xrotation Yrotation Zrotation
		JOINT left_knee
		{
			OFFSET	-28.2	-396.7	2.2
			CHANNELS 3  Xrotation Yrotation Zrotation
			JOINT left_ankle
			{
				OFFSET	-11.7	-411.3	35.4
				CHANNELS 3  Xrotation Yrotation Zrotation
				JOINT left_toes
				{
					OFFSET	0	-60	-88.6
					CHANNELS 3  Xrotation Yrotation Zrotation
					JOINT left_foot_ee
					{
						OFFSET	-22.5	-16.5	-42.2
						CHANNELS 3  Xrotation Yrotation Zrotation
						End Site
						{
							OFFSET	1	0	0
						}
					}
				}
			}
		}
	}
	JOINT right_hip
	{
		OFFSET	82.8	-127.5	0.300001
		CHANNELS 3  Xrotation Yrotation Zrotation
		JOINT right_knee
		{
			OFFSET	28.2	-396.7	2.2
			CHANNELS 3  Xrotation Yrotation Zrotation
			JOINT right_ankle
			{
				OFFSET	11.7	-411.3	35.4
				CHANNELS 3  Xrotation Yrotation Zrotation
				JOINT right_toes
				{
					OFFSET	0	-60	-88.6
					CHANNELS 3  Xrotation Yrotation Zrotation
					JOINT right_foot_ee
					{
						OFFSET	22.5	-16.5	-42.2
						CHANNELS 3  Xrotation Yrotation Zrotation
						End Site
						{
							OFFSET	1	0	0
						}
					}
				}
			}
		}
	}
}
MOTION
Frames: 10
Frame Time: 0.02
501.572 706.495 -1340.25 -173.726 -41.1747 179.653 1.29432 0.51994 2.02007 1.29651 0.390372 2.04904 1.31101 -0.00119691 2.08588 1.30508 0.328173 2.05992 -7.4192 11.2445 6.81152 -7.31899 16.0806 9.10625 -0.0 0.0 -0.0 -3.48421 24.1837 -1.90842 -2.47811 -1.58458 80.0186 0.598713 -16.5197 0.0869151 -7.19062 -0.30815 0.865446 -2.53294 26.7497 -3.48097 -0.0 0.0 -0.0 8.63121 11.089 -16.8351 -10.6628 38.8394 -61.4559 0.680723 18.6347 -0.111686 -3.2535 0.125935 -0.396279 -0.550785 -14.0967 -2.34036 0.0 0.0 0.0 14.3362 55.3095 1.0177 -8.0569 0.246925 1.21082 40.5004 -3.72134 -4.95637 3.0725 -0.0 -0.0 -0.0 0.0 -0.0 3.66788 -10.5092 10.4231 -5.42057 -0.184923 -0.811036 39.6805 -26.1377 5.17517 8.39171 -0.0 -0.0 0.0 0.0 0.0 
516.194 708.861 -1336.52 -174.171 -39.6499 178.905 1.05588 0.495662 1.83038 1.05767 0.378207 1.8582 1.07052 0.0147152 1.89623 1.06564 0.313951 1.87012 -6.87108 12.6993 9.32197 -6.65273 16.8549 11.8166 -0.0 0.0 -0.0 -3.55506 23.5374 -2.14378 -2.46325 -0.835952 80.6298 0.641471 -17.6286 0.0994698 -5.95292 -0.247392 0.719302 -2.12103 28.2528 -0.469383 -0.0 0.0 -0.0 8.46503 15.2065 -16.3013 -15.3773 41.8814 -60.6579 0.755031 20.5068 -0.13658 -7.91737 0.345297 -0.950646 0.0699559 -13.436 -5.96274 0.0 0.0 0.0 14.4968 56.3977 -0.51911 -11.7956 0.303177 1.78164 39.4113 -9.42151 -4.96238 4.97824 -0.0 -0.0 -0.0 0.0 -0.0 3.04822 -6.5607 11.0805 -7.17027 -0.228128 -1.07606 39.1986 -25.8429 5.11787 11.0615 -0.0 -0.0 0.0 0.0 0.0 
531.382 706.072 -1335.9 -174.995 -38.9794 179.206 0.953039 0.355447 1.54119 0.954324 0.256669 1.56068 0.961736 -0.0505343 1.58083 0.958304 0.199731 1.56898 -6.24739 12.4018 7.81566 -6.08199 17.2537 10.1975 -0.0 0.0 -0.0 -3.33744 23.2614 -1.90184 -2.47431 -1.39462 80.2047 0.712713 -19.446 0.122122 -4.70902 -0.18953 0.571154 -2.28155 28.2451 -1.34108 -0.0 0.0 -0.0 7.72138 13.3468 -14.7801 -12.8995 41.924 -61.8322 0.581969 16.0819 -0.0822152 -9.58015 0.434339 -1.14378 0.032169 -16.1204 -6.77869 0.0 0.0 0.0 13.4382 53.6534 -0.953301 -12.3326 0.308194 1.86388 39.3729 -8.18153 -4.93285 6.15357 -0.0 -0.0 -0.0 0.0 -0.0 3.07742 -5.51685 11.0095 -9.04608 -0.265431 -1.36148 38.6919 -25.6334 5.06081 9.11753 -0.0 -0.0 0.0 0.0 0.0 
550.383 706.274 -1333.04 -175.823 -38.5776 179.54 0.722496 0.280943 1.05924 0.723095 0.212975 1.07497 0.727346 -0.00379154 1.09585 0.72571 0.169316 1.0827 -5.4326 14.4397 6.9603 -5.2565 21.488 9.60904 -0.0 0.0 -0.0 -3.61815 24.6479 -1.98918 -2.25872 -3.46782 81.193 0.779901 -21.1235 0.145418 -5.5602 -0.228776 0.672663 -2.12248 25.9897 -1.59118 -0.0 0.0 -0.0 7.16017 13.0097 -13.5893 -14.8498 42.5365 -61.2735 0.593558 16.3851 -0.0854553 -10.3114 0.475272 -1.2279 -0.106958 -17.9139 -6.62293 0.0 0.0 0.0 12.3633 51.1416 -1.18238 -14.3015 0.319986 2.16573 38.6715 -7.84598 -4.86414 7.93908 -0.0 -0.0 -0.0 0.0 -0.0 2.71275 -6.03977 11.3662 -10.2922 -0.285036 -1.55168 38.2576 -26.5946 5.0495 9.79288 -0.0 -0.0 0.0 0.0 0.0 
569.284 708.592 -1329.15 -176.94 -39.1586 179.289 0.294441 0.0826778 0.748711 0.294752 0.0348692 0.752455 0.295338 -0.120232 0.743605 0.294567 -0.00128809 0.753261 -6.91092 14.6421 8.31126 -6.74302 21.2396 11.2113 -0.0 0.0 -0.0 -3.40889 24.107 -1.82245 -2.61574 -5.48498 81.3724 0.832614 -22.4137 0.164968 -5.19634 -0.211814 0.62934 -2.3241 25.3319 -3.04726 -0.0 0.0 -0.0 6.54449 8.28462 -12.4981 -13.1766 42.2781 -62.4652 0.489423 13.6284 -0.0584833 -10.1729 0.467435 -1.212 -0.127941 -16.4336 -5.91287 0.0 0.0 0.0 7.44562 46.4138 1.51094 -13.2397 0.314915 2.0029 38.0344 -9.52122 -4.84137 7.48363 -0.0 -0.0 -0.0 0.0 -0.0 3.52678 0.795876 12.8449 -16.3794 -0.321177 -2.48453 36.8928 -27.3267 4.93439 9.6434 -0.0 -0.0 0.0 0.0 0.0 
578.893 711.437 -1326.36 -178.523 -37.5825 179.053 -0.0794582 -0.00279751 0.330428 -0.0793977 -0.0238177 0.32958 -0.0795105 -0.0929969 0.317084 -0.0796486 -0.0417526 0.327791 -6.59163 15.4762 10.0278 -6.32768 21.4571 13.0168 -0.0 0.0 -0.0 -3.46238 23.7504 -1.97094 -2.62541 -7.16969 81.838 0.870238 -23.3202 0.179589 -5.61827 -0.231508 0.679567 -1.50231 17.9058 -1.83425 -0.0 0.0 -0.0 7.10523 11.0229 -13.5672 -17.0255 42.3511 -59.8763 0.576837 15.9473 -0.0807995 -11.307 0.532723 -1.34158 0.140796 -19.5261 -8.74256 0.0 0.0 0.0 6.47268 39.5533 0.864361 -15.933 0.321896 2.41604 34.8381 -10.4074 -4.55795 10.6964 -0.0 -0.0 -0.0 0.0 -0.0 9.09472 0.293079 11.9645 -22.6914 -0.253971 -3.45021 39.3533 -25.5384 5.1229 10.8014 -0.0 -0.0 0.0 0.0 0.0 
584.279 711.392 -1332.66 -178.584 -38.2497 179.42 -0.0848323 0.0185931 0.341422 -0.0847674 -0.00317006 0.341913 -0.0847566 -0.0754557 0.333499 -0.0849112 -0.0218391 0.34123 -4.93146 15.353 8.9299 -4.65722 21.5672 11.6692 -0.0 0.0 -0.0 -3.3087 23.3123 -1.85149 -0.861228 -5.03584 81.7128 0.955815 -25.3363 0.214849 -8.04726 -0.352049 0.965824 -1.43102 13.7611 -3.30204 -0.0 0.0 -0.0 6.95565 10.6772 -13.2647 -17.2239 41.3956 -59.6306 0.565931 15.6608 -0.0778293 -12.4845 0.603218 -1.47473 -0.799142 -25.2496 -5.47894 0.0 0.0 0.0 7.02829 29.1877 2.47593 -16.9875 0.319339 2.5778 34.2484 -0.984356 -4.35391 8.94777 -0.0 -0.0 -0.0 0.0 -0.0 8.67809 14.8378 8.90086 -29.6676 -0.0566553 -4.50198 39.52 -28.6662 5.25318 13.8082 -0.0 -0.0 0.0 0.0 0.0 
596.188 715.396 -1324.19 -179.689 -36.8785 179.673 -0.118308 0.202367 0.0448122 -0.118329 0.199105 0.0575986 -0.118133 0.18235 0.098535 -0.118093 0.195623 0.0684996 -6.47698 15.8635 9.25086 -6.24603 22.7214 12.3085 -0.0 0.0 -0.0 -3.41752 23.3532 -1.99332 -0.0249085 -8.17798 81.0052 0.993488 -26.2033 0.231228 -7.3885 -0.318157 0.888691 -1.04446 9.59887 -2.72748 -0.0 0.0 -0.0 6.98209 11.4746 -13.2845 -19.5921 42.0228 -59.1769 0.541621 15.0191 -0.071398 -11.2829 0.531311 -1.33884 0.451126 -24.1738 -12.2488 0.0 0.0 0.0 5.8492 22.1793 2.32921 -18.1245 0.313246 2.75215 30.7087 0.983746 -3.97887 9.8366 -0.0 -0.0 -0.0 0.0 -0.0 10.1863 10.3478 8.76613 -34.1818 0.138688 -5.16697 34.631 -27.789 4.70813 13.2373 -0.0 -0.0 0.0 0.0 0.0 
603.079 712.936 -1320.76 179.13 -37.3948 179.045 -0.653658 0.0191659 0.19828 -0.653637 0.00651002 0.199098 -0.6536 -0.037715 0.195602 -0.653653 -0.00635006 0.199103 -4.90695 16.746 10.0217 -4.56371 23.318 12.9897 -0.0 0.0 -0.0 -2.86455 22.8807 -1.32208 1.53347 -9.42729 78.2463 0.980129 -25.8973 0.225361 -7.80964 -0.339721 0.938045 -0.630227 5.85691 -1.67701 -0.0 0.0 -0.0 7.19799 10.8251 -13.7732 -20.4814 41.1007 -58.6078 0.659823 18.1004 -0.1051 -11.5898 0.549402 -1.37368 0.746074 -25.379 -14.3678 0.0 0.0 0.0 4.50927 13.1092 4.61565 -18.6043 0.309637 2.82566 31.8081 7.24417 -4.07932 11.0541 -0.0 -0.0 -0.0 0.0 -0.0 10.5799 18.2667 5.79549 -39.5621 0.439142 -5.93689 38.8082 -27.3554 5.13185 14.2398 -0.0 -0.0 0.0 0.0 0.0 
618.1 720.207 -1321.11 179.402 -37.9548 179.579 -0.817464 0.0901809 0.167398 -0.817452 0.0793462 0.172797 -0.817196 0.0386049 0.186183 -0.817238 0.0675245 0.17775 -5.09142 15.0198 8.16251 -4.85604 21.5743 10.8651 -0.0 0.0 -0.0 -2.43844 22.7495 -0.753149 1.84917 -10.8969 77.7385 1.14867 -29.6396 0.303924 -8.13256 -0.356503 0.975783 -0.79931 4.32666 -3.4525 -0.0 0.0 -0.0 7.04016 10.6625 -13.4447 -20.9886 38.8657 -59.014 0.685114 18.7465 -0.113093 -12.5942 0.60992 -1.48705 0.651454 -26.3062 -14.1142 0.0 0.0 0.0 4.41142 12.2914 4.78019 -18.3003 0.311995 2.77909 25.1249 4.17893 -3.34825 10.0338 -0.0 -0.0 -0.0 0.0 -0.0 11.9161 19.768 4.83904 -41.5692 0.569605 -6.21654 35.3686 -27.6968 4.78516 13.6146 -0.0 -0.0 0.0 0.0 0.0 
